<svg width="16" height="18" viewBox="0 0 16 18" fill="none" xmlns="http://www.w3.org/2000/svg">
<path fill-rule="evenodd" clip-rule="evenodd" d="M0.916016 7.59821C0.916016 3.76499 4.11925 0.666748 7.99389 0.666748C11.8794 0.666748 15.0827 3.76499 15.0827 7.59821C15.0827 9.52982 14.3802 11.3231 13.2239 12.8431C11.9484 14.5197 10.3761 15.9805 8.60647 17.1271C8.20144 17.3921 7.83591 17.4121 7.39139 17.1271C5.61163 15.9805 4.03942 14.5197 2.77477 12.8431C1.61767 11.3231 0.916016 9.52982 0.916016 7.59821ZM5.66121 7.81404C5.66121 9.09817 6.70906 10.1081 7.99389 10.1081C9.27955 10.1081 10.3375 9.09817 10.3375 7.81404C10.3375 6.53991 9.27955 5.48077 7.99389 5.48077C6.70906 5.48077 5.66121 6.53991 5.66121 7.81404Z" fill="#959AA4"/>
</svg>
