<svg width="20" height="14" viewBox="0 0 20 14" fill="none" xmlns="http://www.w3.org/2000/svg">
<path d="M2.7452 5.09015H4.6549C4.53728 5.09015 4.42649 5.0359 4.35394 4.94348C4.28136 4.85107 4.25615 4.73036 4.28444 4.61578L4.52202 3.66628C4.6496 3.15524 5.10715 2.79849 5.63348 2.79849H8.09243C8.72417 2.79849 9.23825 3.31258 9.23825 3.94432V4.7082C9.23825 4.91903 9.06713 5.09015 8.8563 5.09015H11.148C10.9371 5.09015 10.766 4.91903 10.766 4.7082V3.94432C10.766 3.31258 11.2801 2.79849 11.9118 2.79849H14.3708C14.8971 2.79849 15.3547 3.15524 15.4822 3.66628L15.7198 4.61578C15.7489 4.72961 15.7229 4.85107 15.6503 4.94348C15.5777 5.0359 15.467 5.09015 15.3494 5.09015H17.2591C17.4699 5.09015 17.641 4.91903 17.641 4.7082V2.41654C17.641 1.36392 16.7839 0.506836 15.7313 0.506836H4.27298C3.22036 0.506836 2.36328 1.36392 2.36328 2.41654V4.7082C2.36328 4.91903 2.53437 5.09015 2.7452 5.09015Z" fill="#959AA4"/>
<path d="M17.2575 5.854H2.74369C1.69106 5.854 0.833984 6.71108 0.833984 7.76371V13.1109C0.833984 13.3217 1.00511 13.4929 1.21594 13.4929C1.42677 13.4929 1.59789 13.3217 1.59789 13.1109V11.9651H18.4034V13.1109C18.4034 13.3217 18.5745 13.4929 18.7853 13.4929C18.9962 13.4929 19.1673 13.3217 19.1673 13.1109V7.76371C19.1672 6.71108 18.3102 5.854 17.2575 5.854ZM18.4034 11.2012H1.59786V10.4373H18.4033V11.2012H18.4034Z" fill="#959AA4"/>
</svg>
