<svg width="20" height="20" viewBox="0 0 20 20" fill="none" xmlns="http://www.w3.org/2000/svg">
<g clip-path="url(#clip0_151_30703)">
<mask id="mask0_151_30703" style="mask-type:luminance" maskUnits="userSpaceOnUse" x="0" y="0" width="20" height="20">
<path d="M0 0H20V20H0V0Z" fill="white"/>
</mask>
<g mask="url(#mask0_151_30703)">
<path d="M16.4808 1.6665H3.51787C2.49935 1.6665 1.66602 2.49984 1.66602 3.51836V16.4813C1.66602 17.4998 2.49935 18.3332 3.51787 18.3332H16.4808C17.4993 18.3332 18.3327 17.4998 18.3327 16.4813V3.51836C18.3327 2.49984 17.4993 1.6665 16.4808 1.6665ZM6.75861 4.44428C7.3975 4.44428 7.91602 4.9628 7.91602 5.60169C7.91602 6.24058 7.3975 6.7591 6.75861 6.7591C6.11972 6.7591 5.6012 6.24058 5.6012 5.60169C5.6012 4.9628 6.11972 4.44428 6.75861 4.44428ZM9.07342 10.9258C9.07342 11.435 8.65676 11.8517 8.1475 11.8517V14.6295C8.1475 15.1387 7.73083 15.5554 7.22157 15.5554H6.29565C5.78639 15.5554 5.36972 15.1387 5.36972 14.6295V11.8517C4.86046 11.8517 4.44379 11.435 4.44379 10.9258V9.53687C4.44379 8.51836 5.27713 7.68502 6.29565 7.68502H7.22157C8.24009 7.68502 9.07342 8.51836 9.07342 9.53687V10.9258ZM15.1105 11.6295L13.629 13.9998C13.4438 14.2869 13.0271 14.2869 12.8419 13.9998L11.3605 11.6295C11.1753 11.3239 11.3975 10.9258 11.7586 10.9258H14.7216C15.0827 10.9258 15.3049 11.3239 15.1105 11.6295ZM14.7216 9.07391H11.7586C11.3975 9.07391 11.1753 8.67576 11.3697 8.36095L12.8512 5.99058C13.0364 5.70354 13.4531 5.70354 13.6382 5.99058L15.1197 8.36095C15.3049 8.67576 15.0827 9.07391 14.7216 9.07391Z" fill="#959AA4"/>
</g>
</g>
<defs>
<clipPath id="clip0_151_30703">
<rect width="20" height="20" fill="white"/>
</clipPath>
</defs>
</svg>
