<svg width="20" height="14" viewBox="0 0 20 14" fill="none" xmlns="http://www.w3.org/2000/svg">
<path fill-rule="evenodd" clip-rule="evenodd" d="M13.8872 2.60976C13.8872 2.76852 13.7709 2.89722 13.6274 2.89722H6.37395C6.23048 2.89722 6.11416 2.76852 6.11416 2.60976C6.11416 2.451 6.23048 2.3223 6.37395 2.3223H13.6274C13.7709 2.3223 13.8872 2.451 13.8872 2.60976ZM19.0153 7.87264C18.9619 8.67465 18.4074 9.27951 17.7255 9.27951H2.27587C1.59392 9.27951 1.03942 8.67465 0.985974 7.8726C0.782447 4.82455 0.7833 2.66623 0.988683 1.27423C1.07163 0.711546 1.42873 0.333496 1.87732 0.333496H18.1239C18.5725 0.333496 18.9296 0.711546 19.0126 1.27423C19.218 2.66623 19.2189 4.82455 19.0153 7.87264ZM16.6717 7.0825C16.6717 6.88436 16.526 6.72318 16.347 6.72318H3.65436C3.47529 6.72318 3.32962 6.88436 3.32962 7.0825V8.70459H16.6717V7.0825ZM18.4999 1.36687C18.4687 1.15538 18.3515 0.908414 18.124 0.908414H1.87735C1.64981 0.908414 1.53268 1.15538 1.50147 1.36683C1.30277 2.71366 1.30366 4.82784 1.50418 7.8303C1.53788 8.33693 1.86243 8.70459 2.27587 8.70459H2.81004V7.0825C2.81004 6.56737 3.18881 6.14826 3.65436 6.14826H16.347C16.8125 6.14826 17.1913 6.56737 17.1913 7.0825V8.70459H17.7255C18.1389 8.70459 18.4635 8.33693 18.4972 7.83034C18.6977 4.82788 18.6986 2.71366 18.4999 1.36687ZM10.0007 10.5936C9.85719 10.5936 9.74088 10.7223 9.74088 10.8811V13.3794C9.74088 13.5381 9.85719 13.6668 10.0007 13.6668C10.1441 13.6668 10.2605 13.5381 10.2605 13.3794V10.8811C10.2605 10.7223 10.1441 10.5936 10.0007 10.5936ZM7.76922 10.5939C7.62589 10.6003 7.51444 10.7343 7.5203 10.8928C7.55255 11.7629 7.32909 12.6047 6.90716 13.2024C6.81883 13.3275 6.83891 13.5082 6.95199 13.6059C6.99946 13.6469 7.05579 13.6668 7.11172 13.6668C7.18895 13.6668 7.26541 13.6288 7.31662 13.5563C7.81323 12.8528 8.07666 11.8735 8.03943 10.8692C8.03357 10.7106 7.91232 10.5876 7.76922 10.5939ZM5.44398 10.594C5.30091 10.5854 5.17847 10.7076 5.17105 10.8661C5.13004 11.737 4.83566 12.5618 4.36344 13.1289C4.2662 13.2456 4.27292 13.4275 4.37843 13.535C4.42838 13.586 4.49148 13.6111 4.55438 13.6111C4.62445 13.6111 4.6943 13.58 4.74548 13.5185C5.29842 12.8545 5.64268 11.8987 5.68985 10.8961C5.69735 10.7375 5.58723 10.6023 5.44398 10.594ZM12.4811 10.8928C12.4869 10.7343 12.3755 10.6003 12.2322 10.5939C12.0885 10.5875 11.9678 10.7107 11.9619 10.8693C11.9247 11.8734 12.1882 12.8528 12.6848 13.5563C12.736 13.6289 12.8125 13.6668 12.8897 13.6668C12.9456 13.6668 13.0019 13.647 13.0494 13.6059C13.1625 13.5082 13.1826 13.3275 13.0943 13.2025C12.6723 12.6047 12.4488 11.7629 12.4811 10.8928ZM14.8304 10.8661C14.8229 10.7076 14.7006 10.5854 14.5574 10.594C14.4141 10.6023 14.3041 10.7375 14.3115 10.896C14.3587 11.8986 14.703 12.8544 15.2559 13.5184C15.3071 13.5799 15.377 13.6111 15.447 13.6111C15.5099 13.6111 15.573 13.5859 15.6229 13.535C15.7285 13.4274 15.7352 13.2455 15.6379 13.1288C15.1658 12.5618 14.8714 11.737 14.8304 10.8661ZM16.2995 2.2196C16.1054 2.2196 15.947 2.39486 15.947 2.60972C15.947 2.82462 16.1054 2.99984 16.2995 2.99984C16.4938 2.99984 16.6521 2.82457 16.6521 2.60972C16.6521 2.39486 16.4938 2.2196 16.2995 2.2196Z" fill="#959AA4"/>
</svg>
