<svg width="18" height="18" viewBox="0 0 18 18" fill="none" xmlns="http://www.w3.org/2000/svg">
<path d="M12.4969 0.666504H5.5101C2.47525 0.666504 0.666016 2.47484 0.666016 5.50817V12.4832C0.666016 15.5248 2.47525 17.3332 5.5101 17.3332H12.4886C15.5234 17.3332 17.3327 15.5248 17.3327 12.4915V5.50817C17.341 2.47484 15.5318 0.666504 12.4969 0.666504ZM14.6313 7.33317C14.6313 7.67484 14.3478 7.95817 14.006 7.95817C13.6642 7.95817 13.3807 7.67484 13.3807 7.33317V5.50817L5.5101 13.3748H7.33601C7.67784 13.3748 7.96132 13.6582 7.96132 13.9998C7.96132 14.3415 7.67784 14.6248 7.33601 14.6248H4.00101C3.91764 14.6248 3.83426 14.6082 3.75922 14.5748C3.60915 14.5082 3.48409 14.3915 3.41739 14.2332C3.39237 14.1582 3.3757 14.0832 3.3757 13.9998V10.6665C3.3757 10.3248 3.65917 10.0415 4.00101 10.0415C4.34285 10.0415 4.62632 10.3248 4.62632 10.6665V12.4915L12.4969 4.62484H10.671C10.3292 4.62484 10.0457 4.3415 10.0457 3.99984C10.0457 3.65817 10.3292 3.37484 10.671 3.37484H14.006C14.0894 3.37484 14.1644 3.3915 14.2478 3.42484C14.3979 3.4915 14.5229 3.60817 14.5896 3.7665C14.6146 3.8415 14.6313 3.9165 14.6313 3.99984V7.33317Z" fill="#959AA4"/>
</svg>
