<svg width="20" height="14" viewBox="0 0 20 14" fill="none" xmlns="http://www.w3.org/2000/svg">
<path d="M15.9331 5.51647C16.6629 5.02387 17.1438 4.18931 17.1438 3.24453C17.1438 1.73393 15.9148 0.504954 14.4042 0.504954C12.8936 0.504954 11.6647 1.73393 11.6647 3.24453C11.6647 4.18888 12.1451 5.02312 12.8744 5.51583C12.3431 5.69569 11.8457 5.96958 11.404 6.32869C11.0303 5.96929 10.5288 5.76229 10.0007 5.76229C9.4726 5.76229 8.97108 5.96936 8.59761 6.32869C8.15582 5.96958 7.65832 5.69569 7.12694 5.51579C7.85626 5.02308 8.33669 4.18884 8.33669 3.24446C8.33669 1.73386 7.10771 0.504883 5.59711 0.504883C4.08668 0.504883 2.85788 1.73386 2.85788 3.24446C2.85788 4.18924 3.33867 5.02376 4.06842 5.5164C2.19255 6.15381 0.838532 7.93071 0.834486 10.0185C0.834378 10.0217 0.833984 10.0247 0.833984 10.0279C0.833984 10.5798 1.14758 11.3943 2.64168 12.1405C3.7063 12.6722 5.16932 13.072 6.8726 13.2964C7.87169 13.4281 8.92414 13.495 10.0007 13.495C11.0775 13.495 12.13 13.4282 13.1291 13.2964C14.8322 13.072 16.2951 12.6722 17.3597 12.1405C18.8537 11.3942 19.1673 10.5798 19.1673 10.0279C19.1673 7.93604 17.8118 6.15484 15.9331 5.51647ZM12.3836 3.24453C12.3836 2.13035 13.2901 1.22393 14.4042 1.22393C15.5184 1.22393 16.4248 2.13039 16.4248 3.24453C16.4248 4.35854 15.5184 5.26478 14.4042 5.26478C13.2901 5.26478 12.3836 4.35854 12.3836 3.24453ZM8.92808 7.04287C9.17232 6.69124 9.57322 6.48126 10.0007 6.48126C10.4283 6.48126 10.8293 6.69124 11.0735 7.04287C11.0736 7.04297 11.0737 7.04304 11.0737 7.04312C11.2261 7.26222 11.3066 7.5195 11.3066 7.78723C11.3066 8.50735 10.7207 9.09319 10.0006 9.09319C9.28067 9.09319 8.69501 8.50731 8.69501 7.78719C8.69501 7.51907 8.77547 7.26186 8.92808 7.04287ZM3.57679 3.24453C3.57679 2.13035 4.48307 1.22393 5.59703 1.22393C6.71121 1.22393 7.61764 2.13039 7.61764 3.24453C7.61764 4.35854 6.71118 5.26478 5.59703 5.26478C4.48307 5.26478 3.57679 4.35854 3.57679 3.24453ZM6.56025 12.5258C5.11059 12.3051 3.87309 11.9519 2.96298 11.4973C2.05634 11.0445 1.55604 10.5243 1.55314 10.0322C1.55314 10.0307 1.55335 10.0293 1.55335 10.0279C1.55332 7.79797 3.36735 5.98376 5.59707 5.98376C6.54568 5.98376 7.45071 6.31146 8.17494 6.9117C8.04436 7.18309 7.97611 7.48061 7.97611 7.78726C7.97611 8.41307 8.26153 8.97342 8.7089 9.34517C7.45239 9.85603 6.56351 11.0888 6.56025 12.5258ZM12.7226 12.622C11.8482 12.7241 10.9344 12.7761 10.0007 12.7761C9.06715 12.7761 8.15342 12.7241 7.27905 12.622V12.5338C7.27905 11.0331 8.49993 9.81217 10.0007 9.81217C11.5015 9.81217 12.7226 11.0331 12.7226 12.5338V12.622ZM17.0384 11.4973C16.1284 11.9519 14.891 12.305 13.4415 12.5258C13.4383 11.0888 12.5493 9.85606 11.2927 9.34513C11.7402 8.97338 12.0257 8.41303 12.0257 7.78719C12.0257 7.4809 11.9574 7.1833 11.8267 6.91167C12.5506 6.31139 13.4555 5.98369 14.4043 5.98369C16.6342 5.98372 18.4484 7.79793 18.4484 10.0278C18.4484 10.5213 17.9477 11.0432 17.0384 11.4973Z" fill="#959AA4"/>
</svg>
