<svg width="16" height="18" viewBox="0 0 16 18" fill="none" xmlns="http://www.w3.org/2000/svg">
<path fill-rule="evenodd" clip-rule="evenodd" d="M2.66652 18C1.95931 18 1.28107 17.7385 0.781005 17.2731C0.280936 16.8076 0 16.1763 0 15.5181V7.24502C0 7.21689 0.00177778 7.18876 0.0044443 7.16229H0C0 6.68493 0.203544 6.22743 0.565302 5.89155L6.11522 0.726672C6.61526 0.261384 7.29338 0 8.00045 0C8.70751 0 9.38563 0.261384 9.88567 0.726672L15.4347 5.89155C15.7965 6.22826 16 6.68576 16 7.16146H15.9956C15.9982 7.18876 16 7.21689 16 7.24419V15.5173C16 16.1755 15.7191 16.8068 15.219 17.2722C14.7189 17.7377 14.0407 17.9992 13.3335 17.9992L2.66652 18ZM8.62796 1.89648L14.2214 7.10272V15.5189C14.2214 15.7383 14.1278 15.9488 13.9611 16.1039C13.7944 16.2591 13.5683 16.3462 13.3326 16.3462H10.6661V12.2097C10.6661 11.5514 10.3851 10.9202 9.88507 10.4547C9.385 9.98925 8.70676 9.72777 7.99956 9.72777C7.29235 9.72777 6.61411 9.98925 6.11404 10.4547C5.61397 10.9202 5.33304 11.5514 5.33304 12.2097V16.3462H2.66652C2.43078 16.3462 2.2047 16.2591 2.03801 16.1039C1.87132 15.9488 1.77768 15.7383 1.77768 15.5189V7.10272L7.37115 1.89648C7.53783 1.74139 7.76387 1.65426 7.99956 1.65426C8.23524 1.65426 8.46128 1.74139 8.62796 1.89648Z" fill="#959AA4"/>
</svg>
