<svg width="20" height="20" viewBox="0 0 20 20" fill="none" xmlns="http://www.w3.org/2000/svg">
<g id="fluent:arrow-sort-16-regular">
<path id="Vector" d="M2.6824 13.9324C2.62419 13.9905 2.57801 14.0595 2.54651 14.1354C2.515 14.2113 2.49878 14.2927 2.49878 14.3749C2.49878 14.4572 2.515 14.5386 2.54651 14.6145C2.57801 14.6904 2.62419 14.7594 2.6824 14.8174L6.4324 18.5674C6.54975 18.6848 6.70893 18.7507 6.8749 18.7507C7.04087 18.7507 7.20004 18.6848 7.3174 18.5674C7.43475 18.4501 7.50069 18.2909 7.50069 18.1249C7.50069 17.959 7.43475 17.7998 7.3174 17.6824L4.63365 14.9999L16.8749 14.9999C17.0407 14.9999 17.1996 14.9341 17.3168 14.8169C17.434 14.6997 17.4999 14.5407 17.4999 14.3749C17.4999 14.2092 17.434 14.0502 17.3168 13.933C17.1996 13.8158 17.0407 13.7499 16.8749 13.7499L4.63365 13.7499L7.3174 11.0674C7.43475 10.9501 7.50069 10.7909 7.50069 10.6249C7.50069 10.459 7.43475 10.2998 7.3174 10.1824C7.20004 10.0651 7.04087 9.99915 6.8749 9.99915C6.70893 9.99915 6.54975 10.0651 6.4324 10.1824L2.6824 13.9324ZM17.3249 6.05869C17.4372 5.94221 17.4999 5.78673 17.4999 5.62494C17.4999 5.46316 17.4372 5.30767 17.3249 5.19119L13.6999 1.44119C13.6429 1.3821 13.5749 1.3348 13.4997 1.302C13.4244 1.2692 13.3435 1.25155 13.2614 1.25004C13.1793 1.24853 13.0978 1.2632 13.0214 1.29321C12.945 1.32322 12.8752 1.36798 12.8161 1.42494C12.7571 1.4819 12.7098 1.54995 12.677 1.62519C12.6442 1.70043 12.6265 1.78139 12.625 1.86345C12.6235 1.94552 12.6382 2.02707 12.6682 2.10347C12.6982 2.17986 12.7429 2.2496 12.7999 2.30869L15.4011 4.99994L3.12615 4.99994C2.96039 4.99994 2.80141 5.06579 2.6842 5.183C2.56699 5.30021 2.50115 5.45918 2.50115 5.62494C2.50115 5.7907 2.56699 5.94968 2.6842 6.06688C2.80141 6.1841 2.96039 6.24994 3.12615 6.24994L15.4011 6.24994L12.8011 8.93994C12.7433 8.99872 12.6976 9.06837 12.6668 9.14488C12.636 9.22139 12.6206 9.30324 12.6216 9.38572C12.6225 9.4682 12.6398 9.54967 12.6724 9.62544C12.705 9.70121 12.7523 9.76977 12.8115 9.82718C12.8707 9.88459 12.9407 9.92971 13.0175 9.95994C13.0942 9.99017 13.1762 10.0049 13.2587 10.0033C13.3411 10.0017 13.4225 9.98379 13.498 9.9506C13.5735 9.91742 13.6417 9.86961 13.6986 9.80994L17.3249 6.05869Z" fill="#434B5C"/>
</g>
</svg>
