<svg width="20" height="20" viewBox="0 0 20 20" fill="none" xmlns="http://www.w3.org/2000/svg">
<g id="basil:location-outline">
<g id="Group">
<path id="Vector" fill-rule="evenodd" clip-rule="evenodd" d="M6.04297 8.33333C6.04297 7.28352 6.46001 6.2767 7.20234 5.53437C7.94467 4.79204 8.95149 4.375 10.0013 4.375C11.0511 4.375 12.0579 4.79204 12.8003 5.53437C13.5426 6.2767 13.9596 7.28352 13.9596 8.33333C13.9596 9.38315 13.5426 10.39 12.8003 11.1323C12.0579 11.8746 11.0511 12.2917 10.0013 12.2917C8.95149 12.2917 7.94467 11.8746 7.20234 11.1323C6.46001 10.39 6.04297 9.38315 6.04297 8.33333ZM10.0013 5.625C9.28301 5.625 8.59413 5.91034 8.08622 6.41825C7.57831 6.92616 7.29297 7.61504 7.29297 8.33333C7.29297 9.05163 7.57831 9.7405 8.08622 10.2484C8.59413 10.7563 9.28301 11.0417 10.0013 11.0417C10.7196 11.0417 11.4085 10.7563 11.9164 10.2484C12.4243 9.7405 12.7096 9.05163 12.7096 8.33333C12.7096 7.61504 12.4243 6.92616 11.9164 6.41825C11.4085 5.91034 10.7196 5.625 10.0013 5.625Z" fill="#434B5C"/>
<path id="Vector_2" fill-rule="evenodd" clip-rule="evenodd" d="M2.93731 7.38067C3.07974 5.65301 3.86666 4.04208 5.14182 2.86773C6.41697 1.69338 8.08711 1.0415 9.82064 1.0415H10.1806C11.9142 1.0415 13.5843 1.69338 14.8595 2.86773C16.1346 4.04208 16.9215 5.65301 17.064 7.38067C17.2225 9.30507 16.628 11.2159 15.4056 12.7107L11.4115 17.5948C11.2405 17.8039 11.0253 17.9723 10.7813 18.088C10.5373 18.2036 10.2707 18.2636 10.0006 18.2636C9.73062 18.2636 9.46397 18.2036 9.21998 18.088C8.97598 17.9723 8.76074 17.8039 8.58981 17.5948L4.59564 12.7107C3.37324 11.2159 2.77871 9.30508 2.93731 7.38067ZM9.82064 2.2915C8.40104 2.29172 7.03342 2.82569 5.98924 3.78744C4.94506 4.74918 4.30067 6.06838 4.18397 7.48317C4.05197 9.08472 4.54671 10.675 5.56397 11.919L9.55814 16.804C9.61183 16.8697 9.67946 16.9227 9.75614 16.959C9.83281 16.9954 9.91661 17.0143 10.0015 17.0143C10.0863 17.0143 10.1701 16.9954 10.2468 16.959C10.3235 16.9227 10.3911 16.8697 10.4448 16.804L14.439 11.919C15.4556 10.6747 15.9498 9.0845 15.8173 7.48317C15.7006 6.06823 15.0561 4.74892 14.0117 3.78716C12.9674 2.82539 11.5995 2.29151 10.1798 2.2915H9.82064Z" fill="#434B5C"/>
</g>
</g>
</svg>
