<svg width="20" height="20" viewBox="0 0 20 20" fill="none" xmlns="http://www.w3.org/2000/svg">
<g id="icon-park-outline:category-management">
<g id="Group">
<path id="Vector" d="M15.8333 11.6667H4.16667C3.24619 11.6667 2.5 12.4129 2.5 13.3334V15.8334C2.5 16.7539 3.24619 17.5001 4.16667 17.5001H15.8333C16.7538 17.5001 17.5 16.7539 17.5 15.8334V13.3334C17.5 12.4129 16.7538 11.6667 15.8333 11.6667Z" stroke="#434B5C"/>
<path id="Vector_2" d="M8.33333 2.91675H4.16667C3.72464 2.91675 3.30072 3.09234 2.98816 3.4049C2.67559 3.71746 2.5 4.14139 2.5 4.58341V7.08341C2.5 7.52544 2.67559 7.94937 2.98816 8.26193C3.30072 8.57449 3.72464 8.75008 4.16667 8.75008H8.33333" stroke="#434B5C" stroke-linecap="round"/>
<path id="Vector_3" d="M14.1663 9.16667C16.0073 9.16667 17.4997 7.67428 17.4997 5.83333C17.4997 3.99238 16.0073 2.5 14.1663 2.5C12.3254 2.5 10.833 3.99238 10.833 5.83333C10.833 7.67428 12.3254 9.16667 14.1663 9.16667Z" stroke="#434B5C"/>
<path id="Vector_4" d="M14.917 5.83325C14.917 6.24747 14.5812 6.58325 14.167 6.58325C13.7528 6.58325 13.417 6.24747 13.417 5.83325C13.417 5.41904 13.7528 5.08325 14.167 5.08325C14.5812 5.08325 14.917 5.41904 14.917 5.83325Z" fill="#434B5C" stroke="#434B5C"/>
</g>
</g>
</svg>
