<svg width="20" height="20" viewBox="0 0 20 20" fill="none" xmlns="http://www.w3.org/2000/svg">
<g id="quotation-mark 1">
<g id="_x36_6.QuoteRight">
<path id="Vector" d="M6.94824 10H3.89648V12.4414C3.89648 13.788 4.99129 14.8828 6.33789 14.8828H6.64305C7.15039 14.8828 7.55859 15.291 7.55859 15.7984V17.6294C7.55859 18.1368 7.15043 18.545 6.64305 18.545H6.33789C2.9657 18.545 0.234375 15.8136 0.234375 12.4414V3.28613C0.234375 2.27523 1.05453 1.45508 2.06543 1.45508H6.94824C7.95914 1.45508 8.7793 2.27523 8.7793 3.28613V8.16895C8.7793 9.17984 7.95914 10 6.94824 10Z" fill="#D3DCE1"/>
<path id="Vector_2" d="M17.9346 10H14.8828V12.4414C14.8828 13.788 15.9776 14.8828 17.3242 14.8828H17.6294C18.1367 14.8828 18.5449 15.291 18.5449 15.7984V17.6294C18.5449 18.1368 18.1368 18.545 17.6294 18.545H17.3242C13.952 18.545 11.2207 15.8136 11.2207 12.4414V3.28613C11.2207 2.27523 12.0409 1.45508 13.0518 1.45508H17.9346C18.9455 1.45508 19.7656 2.27523 19.7656 3.28613V8.16895C19.7656 9.17984 18.9455 10 17.9346 10Z" fill="#D3DCE1"/>
</g>
</g>
</svg>
